<svg width="76" height="83" viewBox="0 0 76 83" fill="none" xmlns="http://www.w3.org/2000/svg">
<path d="M34.0013 0.999811C39.7613 0.999811 44.3373 1.46651 47.7293 2.39992C51.1853 3.27499 53.6813 4.85012 55.2173 7.12531C56.7533 9.40049 57.5213 12.6091 57.5213 16.7511C57.5213 21.0681 56.5933 24.3642 54.7373 26.6394C52.9453 28.8562 49.9693 30.1397 45.8093 30.4897V31.0147C50.9293 31.4231 54.5133 32.9982 56.5613 35.7401C58.6093 38.4237 59.6333 42.1865 59.6333 47.0285C59.6333 51.1705 58.8333 54.3791 57.2333 56.6543C55.6973 58.9295 53.2653 60.5338 49.9373 61.4672C46.6733 62.3423 42.3853 62.7798 37.0733 62.7798C32.7853 62.7798 29.0413 62.7506 25.8413 62.6923C22.7053 62.6923 19.7933 62.634 17.1053 62.5173C14.4173 62.4006 11.6653 62.2548 8.84927 62.0798L10.2893 52.804C11.8253 52.8623 14.7693 52.9207 19.1213 52.979C23.5373 53.0374 28.6573 53.0665 34.4813 53.0665C37.1693 53.0665 39.2813 52.8332 40.8173 52.3665C42.3533 51.8998 43.4093 51.0539 43.9853 49.8288C44.6253 48.5453 44.9453 46.7369 44.9453 44.4033C44.9453 41.8948 44.6253 39.9988 43.9853 38.7154C43.3453 37.3736 42.2253 36.4402 40.6253 35.9151C39.0893 35.3901 36.9453 35.0984 34.1933 35.0401H10.1933V26.5519H34.0013C36.3693 26.4935 38.2253 26.2602 39.5693 25.8518C40.9773 25.4435 41.9693 24.6559 42.5453 23.4891C43.1213 22.3224 43.4093 20.6889 43.4093 18.5887C43.4093 16.4302 43.0893 14.7968 42.4493 13.6883C41.8733 12.5216 40.8493 11.734 39.3773 11.3256C37.9053 10.9173 35.8573 10.7131 33.2333 10.7131C29.6493 10.7131 26.4813 10.7131 23.7293 10.7131C20.9773 10.7131 18.5133 10.7423 16.3373 10.8006C14.1613 10.8006 12.1453 10.8589 10.2893 10.9756L8.84927 1.69986C11.4093 1.46651 13.8733 1.32067 16.2413 1.26233C18.6733 1.14565 21.2973 1.08732 24.1133 1.08732C26.9293 1.02898 30.2253 0.999811 34.0013 0.999811ZM23.2493 1.69986V62.0798H8.84927V1.69986H23.2493Z" fill="#1F3FAD"/>
<mask id="path-2-outside-1_1_161" maskUnits="userSpaceOnUse" x="6.70801" y="0" width="55" height="65" fill="black">
<rect fill="white" x="6.70801" width="55" height="65"/>
<path d="M57.5215 17.4464C57.5215 13.3582 56.7528 10.1909 55.2168 7.94527C53.6808 5.69987 51.1852 4.14538 47.7295 3.2817C44.5495 2.41801 40.3286 1.95893 35.0674 1.90495L34.001 1.89968C30.2251 1.89968 26.9292 1.9282 24.1133 1.98578C21.2973 1.98578 18.6732 2.04371 16.2412 2.15886C13.8733 2.21644 11.4095 2.35996 8.84961 2.59025V62.1851C11.6655 62.3579 14.4176 62.5023 17.1055 62.6174C19.7933 62.7326 22.7051 62.7896 25.8408 62.7896C29.0408 62.8472 32.7853 62.8757 37.0732 62.8757C42.0534 62.8757 46.1334 62.4962 49.3135 61.7371L49.9375 61.5807C53.2654 60.6594 55.6974 59.0757 57.2334 56.8301C58.7333 54.7249 59.5303 51.81 59.624 48.0855L59.6328 47.3299C59.6328 42.5508 58.6095 38.8363 56.5615 36.1876C54.5135 33.4815 50.9293 31.9271 45.8096 31.524V31.0057C49.9694 30.6602 52.9453 29.3937 54.7373 27.2058C56.4774 25.1004 57.402 22.1094 57.5107 18.2327L57.5215 17.4464ZM43.9453 44.7389C43.9453 42.4587 43.6652 40.8061 43.1758 39.709L43.0752 39.4973L43.0713 39.4902L43.0684 39.4832C42.5781 38.4687 41.7557 37.743 40.5361 37.2938L40.2861 37.2077L40.2744 37.2033C39.0637 36.7948 37.3692 36.5269 35.1523 36.4283L34.1699 36.3967H24.249V52.3528C27.3755 52.376 30.7864 52.3897 34.4814 52.3897V53.2894L30.2451 53.2841C27.7689 53.2776 25.4369 53.2629 23.249 53.2446V35.497H34.1934C36.9452 35.5546 39.089 35.8425 40.625 36.3607C42.225 36.8789 43.3454 37.8004 43.9854 39.1247C44.6253 40.3915 44.9453 42.2631 44.9453 44.7389L44.9414 45.1642C44.9039 47.2626 44.5853 48.9055 43.9854 50.0931C43.4094 51.3022 42.3533 52.1373 40.8174 52.5979L40.5225 52.6814C39.015 53.0863 37.0014 53.2894 34.4814 53.2894V52.3897C37.1229 52.3897 39.1121 52.1613 40.501 51.7448C41.7985 51.3557 42.6157 50.6851 43.0664 49.739L43.0703 49.7302L43.0752 49.7214C43.6297 48.624 43.9453 46.9871 43.9453 44.7389ZM42.4053 18.8776C42.371 17.1308 42.0996 15.8667 41.6611 15.0179L41.5645 14.8422L41.5498 14.8176L41.5371 14.7921C41.0917 13.9018 40.3117 13.2871 39.0859 12.9515C37.9186 12.6319 36.2916 12.4387 34.1719 12.3953L33.2334 12.3866H24.249V26.22H33.9746C36.3005 26.1634 38.0441 25.9376 39.2529 25.5751L39.2656 25.5707C40.419 25.2405 41.1812 24.6323 41.6338 23.7274C42.1261 22.7431 42.4092 21.2769 42.4092 19.2598L42.4053 18.8776ZM43.3955 20.0154C43.3325 21.7284 43.0489 23.0888 42.5449 24.0964L42.4326 24.3082C41.8439 25.3438 40.8892 26.0504 39.5693 26.4282C38.3933 26.7809 36.8253 27.0016 34.8652 27.0898L34.001 27.1197H23.249V11.4878C23.4081 11.4876 23.5684 11.4869 23.7295 11.4869H33.2334C35.8572 11.4869 37.905 11.6883 39.377 12.0913C40.849 12.4944 41.8732 13.2715 42.4492 14.4231C43.0892 15.5171 43.4092 17.1294 43.4092 19.2598L43.3955 20.0154ZM58.5098 18.2529C58.3984 22.2351 57.4474 25.4327 55.5391 27.7417C54.1845 29.3941 52.2581 30.5391 49.8291 31.2227C53.1604 32.0104 55.7165 33.4734 57.3877 35.6815H57.3867C59.5915 38.537 60.6328 42.4547 60.6328 47.3299L60.624 48.1031C60.5284 51.9139 59.7128 55.0071 58.084 57.301C56.3976 59.7665 53.7456 61.468 50.2314 62.4408L50.2197 62.4434C46.8278 63.341 42.4336 63.7754 37.0732 63.7754C32.7807 63.7754 29.0297 63.747 25.8213 63.6893V63.6884C22.6795 63.6882 19.7581 63.631 17.0576 63.5153C14.3721 63.4003 11.6234 63.2571 8.81152 63.0848H7.84961V63.0251L7.70801 63.0172L7.84961 62.121V2.65439L7.71289 1.7881L7.84961 1.7758V1.69057H8.80078C11.3596 1.46139 13.8261 1.31724 16.2002 1.25918C18.6424 1.14375 21.2728 1.08641 24.0908 1.0861L26.2998 1.04832C28.5981 1.01585 31.1653 1 34.001 1C39.8058 1 44.4929 1.46223 48.0186 2.4198H48.0176C51.5354 3.30255 54.2045 4.8944 55.9072 7.24327L56.0693 7.47347C57.7418 9.91862 58.5215 13.2759 58.5215 17.4464L58.5098 18.2529Z"/>
</mask>
<path d="M57.5215 17.4464C57.5215 13.3582 56.7528 10.1909 55.2168 7.94527C53.6808 5.69987 51.1852 4.14538 47.7295 3.2817C44.5495 2.41801 40.3286 1.95893 35.0674 1.90495L34.001 1.89968C30.2251 1.89968 26.9292 1.9282 24.1133 1.98578C21.2973 1.98578 18.6732 2.04371 16.2412 2.15886C13.8733 2.21644 11.4095 2.35996 8.84961 2.59025V62.1851C11.6655 62.3579 14.4176 62.5023 17.1055 62.6174C19.7933 62.7326 22.7051 62.7896 25.8408 62.7896C29.0408 62.8472 32.7853 62.8757 37.0732 62.8757C42.0534 62.8757 46.1334 62.4962 49.3135 61.7371L49.9375 61.5807C53.2654 60.6594 55.6974 59.0757 57.2334 56.8301C58.7333 54.7249 59.5303 51.81 59.624 48.0855L59.6328 47.3299C59.6328 42.5508 58.6095 38.8363 56.5615 36.1876C54.5135 33.4815 50.9293 31.9271 45.8096 31.524V31.0057C49.9694 30.6602 52.9453 29.3937 54.7373 27.2058C56.4774 25.1004 57.402 22.1094 57.5107 18.2327L57.5215 17.4464ZM43.9453 44.7389C43.9453 42.4587 43.6652 40.8061 43.1758 39.709L43.0752 39.4973L43.0713 39.4902L43.0684 39.4832C42.5781 38.4687 41.7557 37.743 40.5361 37.2938L40.2861 37.2077L40.2744 37.2033C39.0637 36.7948 37.3692 36.5269 35.1523 36.4283L34.1699 36.3967H24.249V52.3528C27.3755 52.376 30.7864 52.3897 34.4814 52.3897V53.2894L30.2451 53.2841C27.7689 53.2776 25.4369 53.2629 23.249 53.2446V35.497H34.1934C36.9452 35.5546 39.089 35.8425 40.625 36.3607C42.225 36.8789 43.3454 37.8004 43.9854 39.1247C44.6253 40.3915 44.9453 42.2631 44.9453 44.7389L44.9414 45.1642C44.9039 47.2626 44.5853 48.9055 43.9854 50.0931C43.4094 51.3022 42.3533 52.1373 40.8174 52.5979L40.5225 52.6814C39.015 53.0863 37.0014 53.2894 34.4814 53.2894V52.3897C37.1229 52.3897 39.1121 52.1613 40.501 51.7448C41.7985 51.3557 42.6157 50.6851 43.0664 49.739L43.0703 49.7302L43.0752 49.7214C43.6297 48.624 43.9453 46.9871 43.9453 44.7389ZM42.4053 18.8776C42.371 17.1308 42.0996 15.8667 41.6611 15.0179L41.5645 14.8422L41.5498 14.8176L41.5371 14.7921C41.0917 13.9018 40.3117 13.2871 39.0859 12.9515C37.9186 12.6319 36.2916 12.4387 34.1719 12.3953L33.2334 12.3866H24.249V26.22H33.9746C36.3005 26.1634 38.0441 25.9376 39.2529 25.5751L39.2656 25.5707C40.419 25.2405 41.1812 24.6323 41.6338 23.7274C42.1261 22.7431 42.4092 21.2769 42.4092 19.2598L42.4053 18.8776ZM43.3955 20.0154C43.3325 21.7284 43.0489 23.0888 42.5449 24.0964L42.4326 24.3082C41.8439 25.3438 40.8892 26.0504 39.5693 26.4282C38.3933 26.7809 36.8253 27.0016 34.8652 27.0898L34.001 27.1197H23.249V11.4878C23.4081 11.4876 23.5684 11.4869 23.7295 11.4869H33.2334C35.8572 11.4869 37.905 11.6883 39.377 12.0913C40.849 12.4944 41.8732 13.2715 42.4492 14.4231C43.0892 15.5171 43.4092 17.1294 43.4092 19.2598L43.3955 20.0154ZM58.5098 18.2529C58.3984 22.2351 57.4474 25.4327 55.5391 27.7417C54.1845 29.3941 52.2581 30.5391 49.8291 31.2227C53.1604 32.0104 55.7165 33.4734 57.3877 35.6815H57.3867C59.5915 38.537 60.6328 42.4547 60.6328 47.3299L60.624 48.1031C60.5284 51.9139 59.7128 55.0071 58.084 57.301C56.3976 59.7665 53.7456 61.468 50.2314 62.4408L50.2197 62.4434C46.8278 63.341 42.4336 63.7754 37.0732 63.7754C32.7807 63.7754 29.0297 63.747 25.8213 63.6893V63.6884C22.6795 63.6882 19.7581 63.631 17.0576 63.5153C14.3721 63.4003 11.6234 63.2571 8.81152 63.0848H7.84961V63.0251L7.70801 63.0172L7.84961 62.121V2.65439L7.71289 1.7881L7.84961 1.7758V1.69057H8.80078C11.3596 1.46139 13.8261 1.31724 16.2002 1.25918C18.6424 1.14375 21.2728 1.08641 24.0908 1.0861L26.2998 1.04832C28.5981 1.01585 31.1653 1 34.001 1C39.8058 1 44.4929 1.46223 48.0186 2.4198H48.0176C51.5354 3.30255 54.2045 4.8944 55.9072 7.24327L56.0693 7.47347C57.7418 9.91862 58.5215 13.2759 58.5215 17.4464L58.5098 18.2529Z" fill="white"/>
<path d="M57.5215 17.4464L58.5215 17.46V17.4464H57.5215ZM55.2168 7.94527L56.0422 7.3807L56.0422 7.38067L55.2168 7.94527ZM47.7295 3.2817L47.4674 4.24674C47.4739 4.24852 47.4805 4.25022 47.487 4.25186L47.7295 3.2817ZM35.0674 1.90495L35.0776 0.904988L35.0723 0.904962L35.0674 1.90495ZM34.001 1.89968L34.0059 0.899678H34.001V1.89968ZM24.1133 1.98578V2.98578C24.1201 2.98578 24.1269 2.98571 24.1337 2.98557L24.1133 1.98578ZM16.2412 2.15886L16.2655 3.15857C16.2732 3.15838 16.2808 3.15811 16.2885 3.15774L16.2412 2.15886ZM8.84961 2.59025L8.76001 1.59427C8.24453 1.64065 7.84961 2.07269 7.84961 2.59025H8.84961ZM8.84961 62.1851H7.84961C7.84961 62.7136 8.26087 63.1509 8.78838 63.1833L8.84961 62.1851ZM17.1055 62.6174L17.0627 63.6165H17.0627L17.1055 62.6174ZM25.8408 62.7896L25.8588 61.7898C25.8528 61.7897 25.8468 61.7896 25.8408 61.7896L25.8408 62.7896ZM37.0732 62.8757V63.8757V63.8757V62.8757ZM49.3135 61.7371L49.5457 62.7098L49.5566 62.7071L49.3135 61.7371ZM49.9375 61.5807L50.1806 62.5507C50.1885 62.5487 50.1964 62.5466 50.2043 62.5444L49.9375 61.5807ZM57.2334 56.8301L56.419 56.2499C56.4153 56.2551 56.4116 56.2603 56.408 56.2656L57.2334 56.8301ZM59.624 48.0855L60.6238 48.1107L60.624 48.0971L59.624 48.0855ZM59.6328 47.3299L60.6328 47.3415V47.3299H59.6328ZM56.5615 36.1876L55.7641 36.7911L55.7704 36.7993L56.5615 36.1876ZM45.8096 31.524H44.8096C44.8096 32.0459 45.2108 32.48 45.7311 32.521L45.8096 31.524ZM45.8096 31.0057L45.7268 30.0091C45.2084 30.0522 44.8096 30.4855 44.8096 31.0057H45.8096ZM54.7373 27.2058L53.9665 26.5687L53.9637 26.5721L54.7373 27.2058ZM57.5107 18.2327L58.5103 18.2607C58.5105 18.2559 58.5106 18.2512 58.5107 18.2464L57.5107 18.2327ZM43.9453 44.7389L44.9453 44.739V44.7389H43.9453ZM43.1758 39.709L44.089 39.3016C44.0858 39.2943 44.0825 39.2871 44.079 39.2799L43.1758 39.709ZM43.0752 39.4973L43.9785 39.0682C43.9693 39.049 43.9596 39.0301 43.9493 39.0115L43.0752 39.4973ZM43.0713 39.4902L42.1483 39.875C42.1627 39.9095 42.179 39.9433 42.1972 39.976L43.0713 39.4902ZM43.0684 39.4832L43.9914 39.0985C43.9843 39.0815 43.9767 39.0647 43.9687 39.0481L43.0684 39.4832ZM40.5361 37.2938L40.8818 36.3554C40.8751 36.3529 40.8685 36.3506 40.8618 36.3483L40.5361 37.2938ZM40.2861 37.2076L39.9351 38.144C39.9435 38.1472 39.952 38.1502 39.9605 38.1531L40.2861 37.2076ZM40.2744 37.2033L40.6254 36.2669C40.615 36.263 40.6046 36.2593 40.5941 36.2557L40.2744 37.2033ZM35.1523 36.4283L35.1967 35.4293L35.1845 35.4289L35.1523 36.4283ZM34.1699 36.3967L34.2021 35.3972C34.1914 35.3969 34.1807 35.3967 34.1699 35.3967V36.3967ZM24.249 36.3967V35.3967C23.6967 35.3967 23.249 35.8444 23.249 36.3967H24.249ZM24.249 52.3528H23.249C23.249 52.9022 23.6922 53.3487 24.2416 53.3528L24.249 52.3528ZM34.4814 53.2894L34.4802 54.2894H34.4814L34.4814 53.2894ZM30.2451 53.2841L30.2425 54.2841L30.2439 54.2841L30.2451 53.2841ZM23.249 53.2446H22.249C22.249 53.7936 22.6917 54.24 23.2407 54.2446L23.249 53.2446ZM23.249 35.497V34.497C22.6967 34.497 22.249 34.9447 22.249 35.497H23.249ZM34.1934 35.497L34.2143 34.4972C34.2073 34.4971 34.2003 34.497 34.1934 34.497V35.497ZM40.625 36.3607L40.3053 37.3083L40.3169 37.312L40.625 36.3607ZM43.9854 39.1247L43.085 39.5599C43.0875 39.5651 43.0901 39.5704 43.0928 39.5757L43.9854 39.1247ZM44.9453 44.7389L45.9453 44.7481V44.7389H44.9453ZM44.9414 45.1642L45.9413 45.182L45.9414 45.1734L44.9414 45.1642ZM43.9854 50.0931L43.0928 49.6422C43.0893 49.6491 43.0859 49.656 43.0826 49.663L43.9854 50.0931ZM40.8174 52.5979L41.0897 53.5602C41.0947 53.5587 41.0997 53.5573 41.1047 53.5558L40.8174 52.5979ZM40.5225 52.6814L40.7819 53.6473L40.7948 53.6436L40.5225 52.6814ZM40.501 51.7448L40.7882 52.7027L40.7882 52.7027L40.501 51.7448ZM43.0664 49.739L43.9692 50.1691C43.973 50.1612 43.9766 50.1532 43.9802 50.1453L43.0664 49.739ZM43.0703 49.7302L42.1962 49.2444C42.1818 49.2704 42.1686 49.2969 42.1566 49.324L43.0703 49.7302ZM43.0752 49.7214L43.9493 50.2072C43.9557 50.1957 43.9618 50.1841 43.9677 50.1724L43.0752 49.7214ZM42.4053 18.8776L43.4053 18.8674L43.4051 18.8579L42.4053 18.8776ZM41.6611 15.0179L42.5496 14.559C42.5456 14.5512 42.5415 14.5435 42.5373 14.5359L41.6611 15.0179ZM41.5645 14.8422L42.4406 14.3602C42.4351 14.3502 42.4295 14.3404 42.4237 14.3306L41.5645 14.8422ZM41.5498 14.8176L40.6548 15.2636C40.6659 15.2859 40.6778 15.3078 40.6906 15.3292L41.5498 14.8176ZM41.5371 14.7921L42.4322 14.3462L42.4314 14.3447L41.5371 14.7921ZM39.0859 12.9515L39.35 11.987L39.35 11.987L39.0859 12.9515ZM34.1719 12.3953L34.1923 11.3955L34.1812 11.3954L34.1719 12.3953ZM33.2334 12.3866L33.2428 11.3866H33.2334V12.3866ZM24.249 12.3866V11.3866C23.6967 11.3866 23.249 11.8343 23.249 12.3866H24.249ZM24.249 26.22H23.249C23.249 26.7723 23.6967 27.22 24.249 27.22V26.22ZM33.9746 26.22V27.22C33.9827 27.22 33.9908 27.2199 33.9989 27.2197L33.9746 26.22ZM39.2529 25.5751L39.5402 26.533C39.5535 26.529 39.5668 26.5247 39.5799 26.5201L39.2529 25.5751ZM39.2656 25.5707L38.9904 24.6093C38.973 24.6143 38.9557 24.6198 38.9386 24.6257L39.2656 25.5707ZM41.6338 23.7274L42.5281 24.1748L42.5282 24.1748L41.6338 23.7274ZM42.4092 19.2598L43.4092 19.2598L43.4091 19.2496L42.4092 19.2598ZM43.3955 20.0154L44.3948 20.0521C44.3951 20.0459 44.3952 20.0397 44.3953 20.0335L43.3955 20.0154ZM42.5449 24.0964L43.4284 24.565C43.4321 24.558 43.4357 24.5509 43.4393 24.5438L42.5449 24.0964ZM42.4326 24.3082L43.302 24.8024C43.3068 24.7939 43.3115 24.7853 43.316 24.7767L42.4326 24.3082ZM39.5693 26.4282L39.2941 25.4668L39.2821 25.4704L39.5693 26.4282ZM34.8652 27.0898L34.8998 28.0892L34.9102 28.0888L34.8652 27.0898ZM34.001 27.1197V28.1197C34.0125 28.1197 34.024 28.1195 34.0355 28.1191L34.001 27.1197ZM23.249 27.1197H22.249C22.249 27.6719 22.6967 28.1197 23.249 28.1197V27.1197ZM23.249 11.4878L23.2478 10.4878C22.696 10.4884 22.249 10.936 22.249 11.4878H23.249ZM33.2334 11.4869L33.2334 10.4869H33.2334V11.4869ZM39.377 12.0913L39.641 11.1268L39.641 11.1268L39.377 12.0913ZM42.4492 14.4231L41.5549 14.8705C41.5646 14.89 41.575 14.9092 41.5861 14.9281L42.4492 14.4231ZM43.4092 19.2598L44.409 19.2779C44.4091 19.2718 44.4092 19.2658 44.4092 19.2598H43.4092ZM58.5098 18.2529L59.5095 18.2809L59.5097 18.2674L58.5098 18.2529ZM55.5391 27.7417L54.7682 27.1046L54.7657 27.1078L55.5391 27.7417ZM49.8291 31.2227L49.5582 30.2601C49.1194 30.3836 48.8197 30.7881 48.8293 31.2438C48.8389 31.6994 49.1554 32.091 49.599 32.1958L49.8291 31.2227ZM57.3877 35.6815V36.6815C57.7673 36.6815 58.1141 36.4667 58.2831 36.1268C58.4521 35.787 58.4141 35.3807 58.1851 35.0781L57.3877 35.6815ZM57.3867 35.6815V34.6815C57.0054 34.6815 56.6573 34.8984 56.4892 35.2406C56.3211 35.5828 56.3622 35.9909 56.5952 36.2927L57.3867 35.6815ZM60.6328 47.3299L61.6328 47.3413V47.3299H60.6328ZM60.624 48.1031L61.6238 48.1281L61.624 48.1144L60.624 48.1031ZM58.084 57.301L57.2686 56.7221C57.2652 56.7269 57.2619 56.7317 57.2586 56.7365L58.084 57.301ZM50.2314 62.4408L50.4509 63.4164C50.4668 63.4129 50.4826 63.4089 50.4982 63.4046L50.2314 62.4408ZM50.2197 62.4434L50.0003 61.4678C49.9881 61.4706 49.976 61.4735 49.9639 61.4767L50.2197 62.4434ZM37.0732 63.7754V64.7754V64.7754V63.7754ZM25.8213 63.6893H24.8213C24.8213 64.2346 25.2581 64.6793 25.8033 64.6891L25.8213 63.6893ZM25.8213 63.6884H26.8213C26.8213 63.1362 26.3736 62.6885 25.8214 62.6884L25.8213 63.6884ZM17.0576 63.5153L17.0148 64.5144V64.5144L17.0576 63.5153ZM8.81152 63.0848L8.87269 62.0867C8.85232 62.0854 8.83193 62.0848 8.81152 62.0848V63.0848ZM7.84961 63.0848H6.84961C6.84961 63.6371 7.29732 64.0848 7.84961 64.0848V63.0848ZM7.84961 63.0251H8.84961C8.84961 62.4944 8.43516 62.0562 7.90536 62.0266L7.84961 63.0251ZM7.70801 63.0172L6.72026 62.8611C6.67613 63.1404 6.7523 63.4253 6.9299 63.6453C7.1075 63.8653 7.36994 63.9998 7.65225 64.0156L7.70801 63.0172ZM7.84961 62.121L8.83736 62.2771C8.84551 62.2255 8.84961 62.1733 8.84961 62.121H7.84961ZM7.84961 2.65439H8.84961C8.84961 2.60219 8.84552 2.55006 8.83738 2.4985L7.84961 2.65439ZM7.71289 1.7881L7.62328 0.79212C7.34759 0.816923 7.09451 0.954896 6.92429 1.17319C6.75408 1.39148 6.68196 1.67056 6.72512 1.94399L7.71289 1.7881ZM7.84961 1.7758L7.93922 2.77177C8.45469 2.7254 8.84961 2.29336 8.84961 1.7758H7.84961ZM7.84961 1.69057V0.690573C7.29732 0.690573 6.84961 1.13829 6.84961 1.69057H7.84961ZM8.80078 1.69057V2.69057C8.83056 2.69057 8.86033 2.68924 8.88999 2.68659L8.80078 1.69057ZM16.2002 1.25918L16.2246 2.25889C16.2322 2.2587 16.2398 2.25843 16.2474 2.25807L16.2002 1.25918ZM24.0908 1.0861L24.0909 2.0861C24.0966 2.0861 24.1023 2.08605 24.1079 2.08596L24.0908 1.0861ZM26.2998 1.04832L26.2857 0.048418L26.2827 0.0484688L26.2998 1.04832ZM34.001 1V0V0V1ZM48.0186 2.4198V3.4198C48.5197 3.4198 48.9435 3.0488 49.0098 2.55202C49.076 2.05523 48.7643 1.58613 48.2807 1.45477L48.0186 2.4198ZM48.0176 2.4198V1.4198C47.5127 1.4198 47.087 1.79613 47.0251 2.29718C46.9632 2.79824 47.2845 3.26685 47.7742 3.38973L48.0176 2.4198ZM55.9072 7.24327L56.7249 6.66743L56.7169 6.65635L55.9072 7.24327ZM56.0693 7.47346L56.8948 6.90884L56.8869 6.89768L56.0693 7.47346ZM58.5215 17.4464L59.5214 17.4609C59.5215 17.456 59.5215 17.4512 59.5215 17.4464H58.5215ZM57.5215 17.4464H58.5215C58.5215 13.2518 57.7358 9.85677 56.0422 7.3807L55.2168 7.94527L54.3914 8.50984C55.7698 10.525 56.5215 13.4646 56.5215 17.4464H57.5215ZM55.2168 7.94527L56.0422 7.38067C54.3299 4.87753 51.5901 3.2158 47.972 2.31154L47.7295 3.2817L47.487 4.25186C50.7804 5.07495 53.0318 6.5222 54.3914 8.50986L55.2168 7.94527ZM47.7295 3.2817L47.9916 2.31666C44.6957 1.4215 40.3799 0.959403 35.0776 0.905002L35.0674 1.90495L35.0571 2.9049C40.2774 2.95846 44.4033 3.41453 47.4674 4.24674L47.7295 3.2817ZM35.0674 1.90495L35.0723 0.904962L34.0059 0.89969L34.001 1.89968L33.996 2.89967L35.0624 2.90494L35.0674 1.90495ZM34.001 1.89968V0.899678C30.2205 0.89968 26.9175 0.928234 24.0928 0.985989L24.1133 1.98578L24.1337 2.98557C26.941 2.92817 30.2297 2.89968 34.001 2.89968V1.89968ZM24.1133 1.98578V0.98578C21.2838 0.98578 18.6438 1.04398 16.1939 1.15998L16.2412 2.15886L16.2885 3.15774C18.7026 3.04343 21.3108 2.98578 24.1133 2.98578V1.98578ZM16.2412 2.15886L16.2169 1.15916C13.8256 1.21731 11.3399 1.36218 8.76001 1.59427L8.84961 2.59025L8.93921 3.58623C11.479 3.35774 13.9211 3.21558 16.2655 3.15857L16.2412 2.15886ZM8.84961 2.59025H7.84961V62.1851H8.84961H9.84961V2.59025H8.84961ZM8.84961 62.1851L8.78838 63.1833C11.61 63.3563 14.3682 63.5011 17.0627 63.6165L17.1055 62.6174L17.1483 61.6183C14.4669 61.5034 11.721 61.3594 8.91084 61.187L8.84961 62.1851ZM17.1055 62.6174L17.0627 63.6165C19.7669 63.7323 22.6932 63.7896 25.8408 63.7896L25.8408 62.7896L25.8408 61.7896C22.717 61.7896 19.8196 61.7328 17.1483 61.6183L17.1055 62.6174ZM25.8408 62.7896L25.8228 63.7894C29.0305 63.8472 32.7812 63.8757 37.0732 63.8757V62.8757V61.8757C32.7893 61.8757 29.0512 61.8472 25.8588 61.7898L25.8408 62.7896ZM37.0732 62.8757V63.8757C42.0954 63.8757 46.261 63.4939 49.5457 62.7097L49.3135 61.7371L49.0813 60.7644C46.0059 61.4986 42.0114 61.8757 37.0732 61.8757V62.8757ZM49.3135 61.7371L49.5566 62.7071L50.1806 62.5507L49.9375 61.5807L49.6944 60.6107L49.0704 60.7671L49.3135 61.7371ZM49.9375 61.5807L50.2043 62.5444C53.697 61.5775 56.3569 59.8828 58.0588 57.3947L57.2334 56.8301L56.408 56.2656C55.0379 58.2686 52.8339 59.7412 49.6707 60.6169L49.9375 61.5807ZM57.2334 56.8301L58.0478 57.4104C59.7041 55.0857 60.527 51.9506 60.6237 48.1107L59.624 48.0855L58.6243 48.0603C58.5335 51.6694 57.7625 54.3641 56.419 56.2499L57.2334 56.8301ZM59.624 48.0855L60.624 48.0971L60.6327 47.3415L59.6328 47.3299L58.6329 47.3183L58.6241 48.0739L59.624 48.0855ZM59.6328 47.3299H60.6328C60.6328 42.4216 59.5833 38.4608 57.3526 35.5759L56.5615 36.1876L55.7704 36.7993C57.6357 39.2117 58.6328 42.68 58.6328 47.3299H59.6328ZM56.5615 36.1876L57.3589 35.5841C55.0661 32.5546 51.1459 30.9411 45.8881 30.5271L45.8096 31.524L45.7311 32.521C50.7127 32.9132 53.961 34.4085 55.7641 36.7911L56.5615 36.1876ZM45.8096 31.524H46.8096V31.0057H45.8096H44.8096V31.524H45.8096ZM45.8096 31.0057L45.8923 32.0022C50.1936 31.645 53.48 30.3191 55.5109 27.8394L54.7373 27.2058L53.9637 26.5721C52.4107 28.4682 49.7451 29.6753 45.7268 30.0091L45.8096 31.0057ZM54.7373 27.2058L55.5081 27.8428C57.439 25.5066 58.398 22.269 58.5103 18.2607L57.5107 18.2327L56.5111 18.2047C56.4061 21.9497 55.5157 24.6943 53.9665 26.5687L54.7373 27.2058ZM57.5107 18.2327L58.5107 18.2464L58.5214 17.46L57.5215 17.4464L56.5216 17.4327L56.5108 18.219L57.5107 18.2327ZM43.9453 44.7389H44.9453C44.9453 42.4013 44.6618 40.5855 44.089 39.3016L43.1758 39.709L42.2625 40.1164C42.6686 41.0266 42.9453 42.5162 42.9453 44.7389H43.9453ZM43.1758 39.709L44.079 39.2799L43.9785 39.0682L43.0752 39.4973L42.1719 39.9263L42.2725 40.1381L43.1758 39.709ZM43.0752 39.4973L43.9493 39.0115L43.9454 39.0045L43.0713 39.4902L42.1972 39.976L42.2011 39.983L43.0752 39.4973ZM43.0713 39.4902L43.9943 39.1055L43.9914 39.0985L43.0684 39.4832L42.1453 39.8679L42.1483 39.875L43.0713 39.4902ZM43.0684 39.4832L43.9687 39.0481C43.3527 37.7734 42.315 36.8833 40.8818 36.3554L40.5361 37.2938L40.1905 38.2321C41.1965 38.6027 41.8034 39.164 42.168 39.9183L43.0684 39.4832ZM40.5361 37.2938L40.8618 36.3483L40.6118 36.2622L40.2861 37.2076L39.9605 38.1531L40.2105 38.2392L40.5361 37.2938ZM40.2861 37.2076L40.6371 36.2713L40.6254 36.2669L40.2744 37.2033L39.9234 38.1396L39.9351 38.144L40.2861 37.2076ZM40.2744 37.2033L40.5941 36.2557C39.2572 35.8047 37.4576 35.5298 35.1967 35.4293L35.1523 36.4283L35.1079 37.4274C37.2808 37.5239 38.8702 37.7849 39.9547 38.1508L40.2744 37.2033ZM35.1523 36.4283L35.1845 35.4289L34.2021 35.3972L34.1699 36.3967L34.1377 37.3962L35.1202 37.4278L35.1523 36.4283ZM34.1699 36.3967V35.3967H24.249V36.3967V37.3967H34.1699V36.3967ZM24.249 36.3967H23.249V52.3528H24.249H25.249V36.3967H24.249ZM24.249 52.3528L24.2416 53.3528C27.3706 53.376 30.7839 53.3897 34.4814 53.3897V52.3897V51.3897C30.7888 51.3897 27.3805 51.376 24.2564 51.3528L24.249 52.3528ZM34.4814 52.3897H33.4814V53.2894H34.4814H35.4814V52.3897H34.4814ZM34.4814 53.2894L34.4827 52.2894L30.2464 52.2841L30.2451 53.2841L30.2439 54.2841L34.4802 54.2894L34.4814 53.2894ZM30.2451 53.2841L30.2477 52.2841C27.7739 52.2776 25.4438 52.2629 23.2574 52.2446L23.249 53.2446L23.2407 54.2446C25.43 54.2629 27.764 54.2776 30.2425 54.2841L30.2451 53.2841ZM23.249 53.2446H24.249V35.497H23.249H22.249V53.2446H23.249ZM23.249 35.497V36.497H34.1934V35.497V34.497H23.249V35.497ZM34.1934 35.497L34.1724 36.4968C36.883 36.5535 38.9098 36.8375 40.3054 37.3082L40.625 36.3607L40.9446 35.4132C39.2682 34.8476 37.0074 34.5557 34.2143 34.4972L34.1934 35.497ZM40.625 36.3607L40.3169 37.312C41.698 37.7594 42.5811 38.5173 43.085 39.5599L43.9854 39.1247L44.8857 38.6896C44.1096 37.0836 42.752 35.9984 40.9331 35.4093L40.625 36.3607ZM43.9854 39.1247L43.0928 39.5757C43.6276 40.6344 43.9453 42.3194 43.9453 44.7389H44.9453H45.9453C45.9453 42.2069 45.623 40.1486 44.8779 38.6738L43.9854 39.1247ZM44.9453 44.7389L43.9454 44.7298L43.9414 45.155L44.9414 45.1642L45.9414 45.1734L45.9453 44.7481L44.9453 44.7389ZM44.9414 45.1642L43.9416 45.1463C43.9054 47.172 43.5967 48.6445 43.0928 49.6422L43.9854 50.0931L44.8779 50.544C45.5738 49.1665 45.9025 47.3531 45.9412 45.182L44.9414 45.1642ZM43.9854 50.0931L43.0826 49.663C42.6518 50.5672 41.8535 51.2432 40.5301 51.6401L40.8174 52.5979L41.1047 53.5558C42.853 53.0314 44.1669 52.0372 44.8882 50.5231L43.9854 50.0931ZM40.8174 52.5979L40.5451 51.6357L40.2501 51.7192L40.5225 52.6814L40.7948 53.6436L41.0897 53.5602L40.8174 52.5979ZM40.5225 52.6814L40.2631 51.7156C38.8756 52.0883 36.9601 52.2894 34.4814 52.2894L34.4814 53.2894L34.4814 54.2894C37.0427 54.2894 39.1544 54.0843 40.7818 53.6472L40.5225 52.6814ZM34.4814 53.2894H35.4814V52.3897H34.4814H33.4814V53.2894H34.4814ZM34.4814 52.3897L34.4814 53.3897C37.1639 53.3897 39.2644 53.1596 40.7882 52.7027L40.501 51.7448L40.2137 50.787C38.9599 51.163 37.0819 51.3897 34.4814 51.3897L34.4814 52.3897ZM40.501 51.7448L40.7882 52.7027C42.2987 52.2497 43.3735 51.4197 43.9692 50.1691L43.0664 49.739L42.1636 49.3089C41.858 49.9504 41.2983 50.4617 40.2137 50.787L40.501 51.7448ZM43.0664 49.739L43.9802 50.1453L43.9841 50.1365L43.0703 49.7302L42.1566 49.324L42.1526 49.3327L43.0664 49.739ZM43.0703 49.7302L43.9444 50.216L43.9493 50.2072L43.0752 49.7214L42.2011 49.2357L42.1962 49.2444L43.0703 49.7302ZM43.0752 49.7214L43.9677 50.1724C44.6237 48.874 44.9453 47.0569 44.9453 44.739L43.9453 44.7389L42.9453 44.7389C42.9453 46.9173 42.6356 48.3739 42.1826 49.2705L43.0752 49.7214ZM42.4053 18.8776L43.4051 18.8579C43.3693 17.0381 43.0876 15.6005 42.5496 14.559L41.6611 15.0179L40.7727 15.4769C41.1116 16.133 41.3726 17.2234 41.4055 18.8972L42.4053 18.8776ZM41.6611 15.0179L42.5373 14.5359L42.4406 14.3602L41.5645 14.8422L40.6883 15.3243L40.785 15.5L41.6611 15.0179ZM41.5645 14.8422L42.4237 14.3306L42.409 14.306L41.5498 14.8176L40.6906 15.3292L40.7052 15.3538L41.5645 14.8422ZM41.5498 14.8176L42.4449 14.3716L42.4322 14.3462L41.5371 14.7921L40.6421 15.2381L40.6548 15.2636L41.5498 14.8176ZM41.5371 14.7921L42.4314 14.3447C41.8356 13.1537 40.795 12.3827 39.35 11.987L39.0859 12.9515L38.8218 13.916C39.8283 14.1916 40.3478 14.65 40.6428 15.2395L41.5371 14.7921ZM39.0859 12.9515L39.35 11.987C38.0692 11.6363 36.3497 11.4396 34.1923 11.3955L34.1719 12.3953L34.1514 13.3951C36.2336 13.4377 37.7679 13.6274 38.8219 13.916L39.0859 12.9515ZM34.1719 12.3953L34.1812 11.3954L33.2428 11.3866L33.2334 12.3866L33.224 13.3865L34.1625 13.3953L34.1719 12.3953ZM33.2334 12.3866V11.3866H24.249V12.3866V13.3866H33.2334V12.3866ZM24.249 12.3866H23.249V26.22H24.249H25.249V12.3866H24.249ZM24.249 26.22V27.22H33.9746V26.22V25.22H24.249V26.22ZM33.9746 26.22L33.9989 27.2197C36.3617 27.1622 38.2072 26.9327 39.5402 26.533L39.2529 25.5751L38.9657 24.6172C37.8809 24.9425 36.2394 25.1646 33.9503 25.2203L33.9746 26.22ZM39.2529 25.5751L39.5799 26.5201L39.5926 26.5157L39.2656 25.5707L38.9386 24.6257L38.9259 24.6301L39.2529 25.5751ZM39.2656 25.5707L39.5408 26.5321C40.9222 26.1366 41.9323 25.3661 42.5281 24.1748L41.6338 23.7274L40.7394 23.2801C40.4301 23.8985 39.9157 24.3444 38.9904 24.6093L39.2656 25.5707ZM41.6338 23.7274L42.5282 24.1748C43.1199 22.9917 43.4092 21.3475 43.4092 19.2598L42.4092 19.2598L41.4092 19.2598C41.4092 21.2063 41.1324 22.4945 40.7394 23.2801L41.6338 23.7274ZM42.4092 19.2598L43.4091 19.2496L43.4052 18.8674L42.4053 18.8776L41.4053 18.8878L41.4092 19.27L42.4092 19.2598ZM43.3955 20.0154L42.3962 19.9786C42.336 21.6162 42.0661 22.8182 41.6506 23.6491L42.5449 24.0964L43.4393 24.5438C44.0317 23.3593 44.3291 21.8406 44.3948 20.0521L43.3955 20.0154ZM42.5449 24.0964L41.6615 23.6279L41.5492 23.8396L42.4326 24.3082L43.316 24.7767L43.4284 24.565L42.5449 24.0964ZM42.4326 24.3082L41.5633 23.814C41.1238 24.5871 40.4041 25.1491 39.2941 25.4668L39.5693 26.4282L39.8446 27.3896C41.3743 26.9517 42.564 26.1006 43.302 24.8024L42.4326 24.3082ZM39.5693 26.4282L39.2821 25.4704C38.2172 25.7897 36.7407 26.0044 34.8203 26.0908L34.8652 27.0898L34.9102 28.0888C36.9099 27.9988 38.5695 27.7721 39.8566 27.3861L39.5693 26.4282ZM34.8652 27.0898L34.8307 26.0904L33.9664 26.1203L34.001 27.1197L34.0355 28.1191L34.8998 28.0892L34.8652 27.0898ZM34.001 27.1197V26.1197H23.249V27.1197V28.1197H34.001V27.1197ZM23.249 27.1197H24.249V11.4878H23.249H22.249V27.1197H23.249ZM23.249 11.4878L23.2503 12.4878C23.4149 12.4875 23.5677 12.4869 23.7295 12.4869V11.4869V10.4869C23.5691 10.4869 23.4013 10.4876 23.2478 10.4878L23.249 11.4878ZM23.7295 11.4869V12.4869H33.2334V11.4869V10.4869H23.7295V11.4869ZM33.2334 11.4869L33.2334 12.4869C35.8221 12.4869 37.767 12.6874 39.1129 13.0558L39.377 12.0913L39.641 11.1268C38.043 10.6893 35.8923 10.4869 33.2334 10.4869L33.2334 11.4869ZM39.377 12.0913L39.1129 13.0558C40.3666 13.3991 41.1297 14.0204 41.5549 14.8705L42.4492 14.4231L43.3436 13.9758C42.6168 12.5227 41.3314 11.5897 39.641 11.1268L39.377 12.0913ZM42.4492 14.4231L41.5861 14.9281C42.0946 15.7974 42.4092 17.2 42.4092 19.2598H43.4092H44.4092C44.4092 17.0588 44.0838 15.2369 43.3124 13.9182L42.4492 14.4231ZM43.4092 19.2598L42.4093 19.2417L42.3957 19.9973L43.3955 20.0154L44.3953 20.0335L44.409 19.2779L43.4092 19.2598ZM58.5098 18.2529L57.5102 18.225C57.4025 22.0754 56.4857 25.0265 54.7682 27.1046L55.5391 27.7417L56.3099 28.3788C58.409 25.8388 59.3943 22.3948 59.5094 18.2809L58.5098 18.2529ZM55.5391 27.7417L54.7657 27.1078C53.57 28.5664 51.8391 29.6181 49.5582 30.2601L49.8291 31.2227L50.1 32.1853C52.6771 31.46 54.7991 30.2219 56.3124 28.3756L55.5391 27.7417ZM49.8291 31.2227L49.599 32.1958C52.7744 32.9467 55.0977 34.3128 56.5903 36.285L57.3877 35.6815L58.1851 35.0781C56.3354 32.634 53.5464 31.0741 50.0592 30.2495L49.8291 31.2227ZM57.3877 35.6815V34.6815H57.3867V35.6815V36.6815H57.3877V35.6815ZM57.3867 35.6815L56.5952 36.2927C58.6177 38.9121 59.6328 42.584 59.6328 47.3299H60.6328H61.6328C61.6328 42.3254 60.5652 38.1619 58.1782 35.0704L57.3867 35.6815ZM60.6328 47.3299L59.6329 47.3185L59.6241 48.0917L60.624 48.1031L61.624 48.1144L61.6327 47.3413L60.6328 47.3299ZM60.624 48.1031L59.6243 48.078C59.5317 51.7731 58.7421 54.6469 57.2686 56.7221L58.084 57.301L58.8994 57.88C60.6835 55.3672 61.5252 52.0548 61.6237 48.1281L60.624 48.1031ZM58.084 57.301L57.2586 56.7365C55.738 58.9595 53.3139 60.5499 49.9647 61.4771L50.2314 62.4408L50.4982 63.4046C54.1772 62.3861 57.0571 60.5735 58.9094 57.8656L58.084 57.301ZM50.2314 62.4408L50.012 61.4652L50.0003 61.4678L50.2197 62.4434L50.4392 63.4191L50.4509 63.4164L50.2314 62.4408ZM50.2197 62.4434L49.9639 61.4767C46.6889 62.3433 42.3906 62.7754 37.0732 62.7754V63.7754V64.7754C42.4767 64.7754 46.9667 64.3387 50.4755 63.4102L50.2197 62.4434ZM37.0732 63.7754V62.7754C32.7847 62.7754 29.04 62.747 25.8393 62.6895L25.8213 63.6893L25.8033 64.6891C29.0194 64.747 32.7766 64.7754 37.0732 64.7754V63.7754ZM25.8213 63.6893H26.8213V63.6884H25.8213H24.8213V63.6893H25.8213ZM25.8213 63.6884L25.8214 62.6884C22.6914 62.6882 19.7844 62.6312 17.1004 62.5162L17.0576 63.5153L17.0148 64.5144C19.7317 64.6308 22.6676 64.6882 25.8212 64.6884L25.8213 63.6884ZM17.0576 63.5153L17.1004 62.5162C14.4212 62.4015 11.6786 62.2586 8.87269 62.0867L8.81152 63.0848L8.75036 64.0829C11.5682 64.2556 14.3231 64.3991 17.0148 64.5144L17.0576 63.5153ZM8.81152 63.0848V62.0848H7.84961V63.0848V64.0848H8.81152V63.0848ZM7.84961 63.0848H8.84961V63.0251H7.84961H6.84961V63.0848H7.84961ZM7.84961 63.0251L7.90536 62.0266L7.76376 62.0187L7.70801 63.0172L7.65225 64.0156L7.79385 64.0235L7.84961 63.0251ZM7.70801 63.0172L8.69575 63.1732L8.83736 62.2771L7.84961 62.121L6.86186 61.9649L6.72026 62.8611L7.70801 63.0172ZM7.84961 62.121H8.84961V2.65439H7.84961H6.84961V62.121H7.84961ZM7.84961 2.65439L8.83738 2.4985L8.70066 1.63221L7.71289 1.7881L6.72512 1.94399L6.86184 2.81028L7.84961 2.65439ZM7.71289 1.7881L7.8025 2.78407L7.93922 2.77177L7.84961 1.7758L7.76 0.779819L7.62328 0.79212L7.71289 1.7881ZM7.84961 1.7758H8.84961V1.69057H7.84961H6.84961V1.7758H7.84961ZM7.84961 1.69057V2.69057H8.80078V1.69057V0.690573H7.84961V1.69057ZM8.80078 1.69057L8.88999 2.68659C11.4291 2.45917 13.874 2.31637 16.2246 2.25889L16.2002 1.25918L16.1757 0.259484C13.7782 0.318116 11.29 0.463618 8.71157 0.69456L8.80078 1.69057ZM16.2002 1.25918L16.2474 2.25807C18.6717 2.14349 21.2862 2.08641 24.0909 2.0861L24.0908 1.0861L24.0907 0.086102C21.2595 0.0864083 18.6132 0.144019 16.153 0.2603L16.2002 1.25918ZM24.0908 1.0861L24.1079 2.08596L26.3169 2.04818L26.2998 1.04832L26.2827 0.0484688L24.0737 0.0862482L24.0908 1.0861ZM26.2998 1.04832L26.3139 2.04822C28.6065 2.01583 31.1689 2 34.001 2V1V0C31.1618 1.13249e-06 28.5898 0.0158651 26.2857 0.0484224L26.2998 1.04832ZM34.001 1V2C39.766 2 44.3531 2.46048 47.7565 3.38484L48.0186 2.4198L48.2807 1.45477C44.6327 0.463969 39.8456 0 34.001 0V1ZM48.0186 2.4198V1.4198H48.0176V2.4198V3.4198H48.0186V2.4198ZM48.0176 2.4198L47.7742 3.38973C51.1356 4.23324 53.5706 5.72375 55.0976 7.8302L55.9072 7.24327L56.7169 6.65635C54.8384 4.06506 51.9351 2.37186 48.261 1.44988L48.0176 2.4198ZM55.9072 7.24327L55.0896 7.81906L55.2517 8.04925L56.0693 7.47346L56.8869 6.89768L56.7248 6.66749L55.9072 7.24327ZM56.0693 7.47346L55.2439 8.03803C56.7587 10.2526 57.5215 13.3821 57.5215 17.4464H58.5215H59.5215C59.5215 13.1698 58.725 9.58466 56.8947 6.9089L56.0693 7.47346ZM58.5215 17.4464L57.5216 17.4318L57.5099 18.2384L58.5098 18.2529L59.5097 18.2674L59.5214 17.4609L58.5215 17.4464Z" fill="#1F3FAD" mask="url(#path-2-outside-1_1_161)"/>
<path fill-rule="evenodd" clip-rule="evenodd" d="M25.3333 55.3799C11.8222 55.3799 3.37778 61.3799 0 73.3799C5.06667 67.3799 11.2444 65.8799 18 67.3799C21.8544 68.2349 24.3425 69.9699 27.3919 72.7182C32.3591 77.1965 38.1088 82.3799 50.6667 82.3799C64.1778 82.3799 72.6222 76.3799 76 64.3799C70.9333 70.3799 65.0222 72.6299 58.2667 71.1299C54.4123 70.2749 51.6575 67.7899 48.6081 65.0415C43.6409 60.5632 37.8912 55.3799 25.3333 55.3799Z" fill="#1F3FAD"/>
<path d="M25.333 54.3799C28.4306 54.3796 31.5741 54.6898 34.6084 55.4873C40.2919 56.8709 45.213 60.4748 49.2773 64.2988C49.3708 64.3831 49.4639 64.4673 49.5566 64.5508C52.3052 67.0326 54.9789 69.5328 58.4219 70.4316C64.6732 72.4185 71.8257 69.6341 76.001 64.3799V64.3809C71.9322 69.576 65.0942 73.336 58.1113 71.8281C54.1471 71.1528 50.949 68.5042 48.2188 66.0371C48.1255 65.9532 48.0321 65.8686 47.9385 65.7842C43.8667 61.9686 39.4057 58.7302 34.1006 57.4219C31.2703 56.6776 28.2985 56.3794 25.333 56.3799C22.3621 56.3806 19.3996 56.6735 16.5713 57.4268C15.3522 57.7518 14.1608 58.1632 13.0166 58.6709C7.19851 61.0812 2.13154 66.1221 0.233398 72.585C2.02538 66.3317 5.62118 59.6572 12.2051 56.8428C13.4535 56.2888 14.7445 55.8437 16.0557 55.4941C19.098 54.6845 22.2291 54.3811 25.333 54.3799Z" fill="white"/>
</svg>
